HIERARCHY
ROOT hip
{
  OFFSET 6.50917 79.7227 267.951
  CHANNELS 6 Xposition Yposition Zposition Zrotation Xrotation Yrotation
  JOINT abdomen
  {
    OFFSET 0 20.6881 -0.73152
    CHANNELS 3 Zrotation Xrotation Yrotation
    JOINT chest
    {
      OFFSET 0 11.7043 -0.48768
      CHANNELS 3 Zrotation Xrotation Yrotation
      JOINT neck
      {
        OFFSET 0 22.1894 -2.19456
        CHANNELS 3 Zrotation Xrotation Yrotation
        JOINT head
        {
          OFFSET -0.24384 7.07133 1.2192
          CHANNELS 3 Zrotation Xrotation Yrotation
          JOINT leftEye
          {
            OFFSET 4.14528 8.04674 8.04672
            CHANNELS 3 Zrotation Xrotation Yrotation
            End Site
            {
              OFFSET 1 0 0
            }
          }
          JOINT rightEye
          {
            OFFSET -3.6576 8.04674 8.04672
            CHANNELS 3 Zrotation Xrotation Yrotation
            End Site
            {
              OFFSET 1 0 0
            }
          }
        }
      }
      JOINT rCollar
      {
        OFFSET -2.68224 19.2634 -4.8768
        CHANNELS 3 Zrotation Xrotation Yrotation
        JOINT rShldr
        {
          OFFSET -8.77824 -1.95073 1.46304
          CHANNELS 3 Zrotation Xrotation Yrotation
          JOINT rForeArm
          {
            OFFSET -28.1742 -1.7115 0.48768
            CHANNELS 3 Zrotation Xrotation Yrotation
            JOINT rHand
            {
              OFFSET -22.5879 0.773209 7.07136
              CHANNELS 3 Zrotation Xrotation Yrotation
              JOINT rThumb1
              {
                OFFSET -1.2192 -0.487915 3.41376
                CHANNELS 3 Zrotation Xrotation Yrotation
                JOINT rThumb2
                {
                  OFFSET -3.37035 -0.52449 3.41376
                  CHANNELS 3 Zrotation Xrotation Yrotation
                  End Site
                  {
                    OFFSET -1.78271 -1.18214 1.43049
                  }
                }
              }
              JOINT rIndex1
              {
                OFFSET -7.75947 0.938293 5.60832
                CHANNELS 3 Zrotation Xrotation Yrotation
                JOINT rIndex2
                {
                  OFFSET -2.54057 -0.884171 1.56538
                  CHANNELS 3 Zrotation Xrotation Yrotation
                  End Site
                  {
                    OFFSET -1.62519 -0.234802 1.16502
                  }
                }
              }
              JOINT rMid1
              {
                OFFSET -8.24714 1.18213 3.41376
                CHANNELS 3 Zrotation Xrotation Yrotation
                JOINT rMid2
                {
                  OFFSET -3.10165 -0.590103 1.0647
                  CHANNELS 3 Zrotation Xrotation Yrotation
                  End Site
                  {
                    OFFSET -2.48547 -0.328903 0.83742
                  }
                }
              }
              JOINT rRing1
              {
                OFFSET -8.82822 0.546677 1.51678
                CHANNELS 3 Zrotation Xrotation Yrotation
                JOINT rRing2
                {
                  OFFSET -2.60934 -0.819778 -0.0198488
                  CHANNELS 3 Zrotation Xrotation Yrotation
                  End Site
                  {
                    OFFSET -2.33842 -0.294052 0.168128
                  }
                }
              }
              JOINT rPinky1
              {
                OFFSET -8.27202 -0.0477905 -0.4584
                CHANNELS 3 Zrotation Xrotation Yrotation
                JOINT rPinky2
                {
                  OFFSET -1.82734 -0.647385 -0.700984
                  CHANNELS 3 Zrotation Xrotation Yrotation
                  End Site
                  {
                    OFFSET -1.69225 -0.51767 -0.607171
                  }
                }
              }
            }
          }
        }
      }
      JOINT lCollar
      {
        OFFSET 2.68224 19.2634 -4.8768
        CHANNELS 3 Zrotation Xrotation Yrotation
        JOINT lShldr
        {
          OFFSET 8.77824 -1.95073 1.46304
          CHANNELS 3 Zrotation Xrotation Yrotation
          JOINT lForeArm
          {
            OFFSET 28.1742 -1.7115 0.48768
            CHANNELS 3 Zrotation Xrotation Yrotation
            JOINT lHand
            {
              OFFSET 22.5879 0.773209 7.07136
              CHANNELS 3 Zrotation Xrotation Yrotation
              JOINT lThumb1
              {
                OFFSET 1.2192 -0.487915 3.41376
                CHANNELS 3 Zrotation Xrotation Yrotation
                JOINT lThumb2
                {
                  OFFSET 3.37035 -0.52449 3.41376
                  CHANNELS 3 Zrotation Xrotation Yrotation
                  End Site
                  {
                    OFFSET 1.78271 -1.18214 1.43049
                  }
                }
              }
              JOINT lIndex1
              {
                OFFSET 7.75947 0.938293 5.60832
                CHANNELS 3 Zrotation Xrotation Yrotation
                JOINT lIndex2
                {
                  OFFSET 2.54057 -0.884171 1.56538
                  CHANNELS 3 Zrotation Xrotation Yrotation
                  End Site
                  {
                    OFFSET 1.62519 -0.234802 1.16502
                  }
                }
              }
              JOINT lMid1
              {
                OFFSET 8.24714 1.18213 3.41376
                CHANNELS 3 Zrotation Xrotation Yrotation
                JOINT lMid2
                {
                  OFFSET 3.10165 -0.590103 1.0647
                  CHANNELS 3 Zrotation Xrotation Yrotation
                  End Site
                  {
                    OFFSET 2.48547 -0.328903 0.83742
                  }
                }
              }
              JOINT lRing1
              {
                OFFSET 8.82822 0.546677 1.51678
                CHANNELS 3 Zrotation Xrotation Yrotation
                JOINT lRing2
                {
                  OFFSET 2.60934 -0.819778 -0.0198488
                  CHANNELS 3 Zrotation Xrotation Yrotation
                  End Site
                  {
                    OFFSET 2.33842 -0.294052 0.168128
                  }
                }
              }
              JOINT lPinky1
              {
                OFFSET 8.27202 -0.0477905 -0.4584
                CHANNELS 3 Zrotation Xrotation Yrotation
                JOINT lPinky2
                {
                  OFFSET 1.82734 -0.647385 -0.700984
                  CHANNELS 3 Zrotation Xrotation Yrotation
                  End Site
                  {
                    OFFSET 1.69225 -0.51767 -0.607171
                  }
                }
              }
            }
          }
        }
      }
    }
  }
  JOINT rButtock
  {
    OFFSET -8.77824 4.35084 1.2192
    CHANNELS 3 Zrotation Xrotation Yrotation
    JOINT rThigh
    {
      OFFSET 0 -1.70687 -2.19456
      CHANNELS 3 Zrotation Xrotation Yrotation
      JOINT rShin
      {
        OFFSET 0 -36.8199 0.73152
        CHANNELS 3 Zrotation Xrotation Yrotation
        JOINT rFoot
        {
          OFFSET 0.73152 -45.1104 -5.12064
          CHANNELS 3 Zrotation Xrotation Yrotation
          End Site
          {
            OFFSET -1.1221 -3.69964 12.103
          }
        }
      }
    }
  }
  JOINT lButtock
  {
    OFFSET 8.77824 4.35084 1.2192
    CHANNELS 3 Zrotation Xrotation Yrotation
    JOINT lThigh
    {
      OFFSET 0 -1.70687 -2.19456
      CHANNELS 3 Zrotation Xrotation Yrotation
      JOINT lShin
      {
        OFFSET 0 -36.8199 0.73152
        CHANNELS 3 Zrotation Xrotation Yrotation
        JOINT lFoot
        {
          OFFSET -0.73152 -45.1104 -5.12064
          CHANNELS 3 Zrotation Xrotation Yrotation
          End Site
          {
            OFFSET 1.1221 -3.69964 12.103
          }
        }
      }
    }
  }
}
MOTION
Frames:	6
Frame Time:	0.00833333
95.5622 79.0819 79.1171 -6.20013 0.208814 58.8662 -4.55491 13.9201 -9.22319 4.53766 -8.24115 -2.41529 -4.47393 -1.64623 -9.77034 16.7582 20.2748 -20.1867 -0 0 0 -0 0 0 -2.84876e-013 4.47388e-013 1.08897e-012 55.0456 36.7846 3.46366 -22.1491 -15.9832 44.1929 -0.0107513 -2.95952 -0.416307 -3.75833e-010 4.43899e-009 -1.7537e-009 -6.45314e-010 7.65145e-009 -3.02446e-009 -3.75831e-010 4.439e-009 -1.75371e-009 7.73091 5.47488 0.417314 -3.75833e-010 4.43899e-009 -1.7537e-009 2.90554 0.965183 0.102902 -3.75826e-010 4.43899e-009 -1.7537e-009 10.2786 0.731801 0.0259123 -3.75838e-010 4.43899e-009 -1.7537e-009 2.22167 -0.733487 -0.20892 -2.84776e-013 4.47377e-013 1.08869e-012 -47.6023 46.6051 -41.3143 25.6909 -22.6661 -55.5207 0.680727 -22.762 3.38062 -1.04471e-009 2.98879e-009 -1.9615e-009 -1.76717e-009 5.32524e-009 -3.42389e-009 -1.04472e-009 2.9888e-009 -1.96149e-009 -7.73091 5.47488 -0.417314 -1.04471e-009 2.9888e-009 -1.9615e-009 -2.90554 0.965183 -0.102902 -1.04472e-009 2.98879e-009 -1.9615e-009 -10.2786 0.731801 -0.0259123 -1.04471e-009 2.98879e-009 -1.96151e-009 -2.22167 -0.733487 0.20892 -2.03217e-016 0 -3.88251e-019 -4.86898 -42.0181 -18.3812 -0.723945 53.8405 1.27735 -1.03436 -28.7724 -1.51652 2.03217e-016 0 3.88251e-019 16.8807 -32.1694 10.0479 0.884057 60.1515 -2.14072 7.99618 -37.3946 12.1799 
95.0883 79.0855 81.432 -6.21602 -0.308091 60.2703 -4.37039 14.0627 -9.81117 4.57905 -8.24661 -2.57483 -4.44995 -1.46496 -9.88479 17.0597 20.3884 -20.4806 -0 0 0 -0 0 0 -1.54068e-013 2.40417e-013 8.09203e-013 55.983 37.0636 2.48033 -22.3074 -16.2264 44.6271 -0.0117117 -3.09068 -0.434792 -5.036e-010 3.02877e-009 -1.35755e-009 -8.66848e-010 5.22076e-009 -2.34215e-009 -5.03598e-010 3.02878e-009 -1.35756e-009 7.73091 5.47488 0.417314 -5.03601e-010 3.02877e-009 -1.35755e-009 2.90554 0.965183 0.102902 -5.03594e-010 3.02877e-009 -1.35755e-009 10.2786 0.731801 0.0259123 -5.03606e-010 3.02877e-009 -1.35754e-009 2.22167 -0.733487 -0.20892 -1.53962e-013 2.4042e-013 8.08954e-013 -47.8965 46.8008 -40.9928 25.6165 -22.4878 -55.2314 0.685104 -22.8305 3.39196 -1.06636e-009 9.20636e-010 -1.17776e-009 -1.81835e-009 1.71696e-009 -2.06635e-009 -1.06636e-009 9.20646e-010 -1.17775e-009 -7.73091 5.47488 -0.417314 -1.06636e-009 9.20643e-010 -1.17777e-009 -2.90554 0.965183 -0.102902 -1.06637e-009 9.20635e-010 -1.17776e-009 -10.2786 0.731801 -0.0259123 -1.06636e-009 9.20637e-010 -1.17777e-009 -2.22167 -0.733487 0.20892 -2.03217e-016 0 -3.88251e-019 -4.83889 -41.7255 -18.6723 -0.720725 53.8651 1.29948 -1.35615 -29.5464 -2.07586 2.03217e-016 0 3.88251e-019 15.9255 -32.1319 7.9078 0.834892 59.4268 -2.12204 8.85718 -38.7059 13.1162 
94.6087 79.0478 83.7261 -6.2241 -0.827239 61.6653 -4.15764 14.2286 -10.3891 4.60706 -8.27238 -2.73057 -4.44483 -1.28136 -10.0061 17.3846 20.492 -20.7862 -0 0 0 -0 0 0 -1.58361e-014 2.01337e-014 4.77153e-013 56.9797 37.284 1.46195 -22.4652 -16.4724 45.0654 -0.0125987 -3.20554 -0.450984 -6.02055e-010 1.31431e-009 -8.13828e-010 -1.03811e-009 2.26528e-009 -1.40519e-009 -6.02054e-010 1.31431e-009 -8.13842e-010 7.73091 5.47488 0.417314 -6.02057e-010 1.31431e-009 -8.13834e-010 2.90554 0.965183 0.102902 -6.02051e-010 1.3143e-009 -8.13831e-010 10.2786 0.731801 0.0259123 -6.02063e-010 1.31431e-009 -8.13825e-010 2.22167 -0.733487 -0.20892 -1.57357e-014 2.01491e-014 4.76936e-013 -48.1821 46.962 -40.6686 25.5404 -22.3078 -54.938 0.691611 -22.9318 3.40875 -1.00749e-009 -9.90131e-010 -3.9097e-010 -1.73055e-009 -1.62463e-009 -7.01241e-010 -1.00749e-009 -9.90118e-010 -3.9096e-010 -7.73091 5.47488 -0.417314 -1.00748e-009 -9.90121e-010 -3.90976e-010 -2.90554 0.965183 -0.102902 -1.0075e-009 -9.90129e-010 -3.90968e-010 -10.2786 0.731801 -0.0259123 -1.00749e-009 -9.90127e-010 -3.90969e-010 -2.22167 -0.733487 0.20892 -2.03217e-016 0 -3.88251e-019 -4.831 -41.4757 -18.9878 -0.719984 53.9359 1.32148 -1.62376 -30.3005 -2.53097 2.03217e-016 0 3.88251e-019 15.0702 -32.1026 5.70834 0.802691 58.8954 -2.10864 9.33653 -39.8539 13.5211 
94.1186 78.9715 86.0052 -6.23736 -1.32597 62.9971 -3.97205 14.3962 -10.8948 4.63646 -8.30626 -2.86567 -4.47729 -1.09343 -10.1475 17.7814 20.5508 -21.1292 -0 0 0 -0 0 0 7.3013e-014 -1.19877e-013 1.62308e-013 58.0641 37.3929 0.395151 -22.619 -16.7158 45.497 -0.0132875 -3.28924 -0.462786 -5.20409e-010 -2.99853e-010 -1.71906e-010 -8.98485e-010 -5.17635e-010 -2.98159e-010 -5.20408e-010 -2.99849e-010 -1.71922e-010 7.73091 5.47488 0.417314 -5.2041e-010 -2.99854e-010 -1.71912e-010 2.90554 0.965183 0.102902 -5.20405e-010 -2.99856e-010 -1.71908e-010 10.2786 0.731801 0.0259123 -5.20417e-010 -2.99856e-010 -1.71903e-010 2.22167 -0.733487 -0.20892 7.30984e-014 -1.19856e-013 1.62109e-013 -48.4191 47.0905 -40.3924 25.4606 -22.1221 -54.6337 0.696994 -23.015 3.42256 -7.58451e-010 -1.6695e-009 6.48515e-011 -1.30878e-009 -2.83754e-009 9.55733e-011 -7.58453e-010 -1.66949e-009 6.48611e-011 -7.73091 5.47488 -0.417314 -7.58444e-010 -1.66949e-009 6.48452e-011 -2.90554 0.965183 -0.102902 -7.58458e-010 -1.6695e-009 6.48539e-011 -10.2786 0.731801 -0.0259123 -7.5845e-010 -1.6695e-009 6.48547e-011 -2.22167 -0.733487 0.20892 -2.03217e-016 0 -3.88251e-019 -4.82309 -41.2998 -19.2963 -0.721368 54.049 1.34283 -1.86144 -31.0218 -2.92482 2.03217e-016 0 3.88251e-019 14.4164 -32.1851 3.79689 0.781436 58.5311 -2.09618 9.60655 -40.6628 13.7067 
93.6161 78.8738 88.2769 -6.26 -1.82365 64.2784 -3.79971 14.5795 -11.3366 4.66498 -8.36003 -2.98163 -4.56159 -0.898581 -10.3127 18.2772 20.5659 -21.5185 -0 0 0 -0 0 0 8.74293e-014 -1.31716e-013 -1.75633e-013 59.2389 37.3841 -0.727832 -22.7729 -16.9639 45.9314 -0.0138045 -3.34808 -0.471086 -1.00668e-010 -2.09594e-009 7.86544e-010 -1.75588e-010 -3.61517e-009 1.35608e-009 -1.00666e-010 -2.09594e-009 7.86531e-010 7.73091 5.47488 0.417314 -1.00669e-010 -2.09594e-009 7.86539e-010 2.90554 0.965183 0.102902 -1.00664e-010 -2.09595e-009 7.86544e-010 10.2786 0.731801 0.0259123 -1.00675e-010 -2.09595e-009 7.8655e-010 2.22167 -0.733487 -0.20892 8.74851e-014 -1.31701e-013 -1.75837e-013 -48.6097 47.1838 -40.1676 25.3769 -21.9296 -54.3187 0.701351 -23.082 3.4337 -1.26524e-010 -1.77345e-010 -3.714e-011 -2.16421e-010 -3.02143e-010 -6.34827e-011 -1.26527e-010 -1.77331e-010 -3.71303e-011 -7.73091 5.47488 -0.417314 -1.26517e-010 -1.77335e-010 -3.71456e-011 -2.90554 0.965183 -0.102902 -1.26532e-010 -1.77342e-010 -3.7138e-011 -10.2786 0.731801 -0.0259123 -1.26523e-010 -1.7734e-010 -3.71378e-011 -2.22167 -0.733487 0.20892 -2.03217e-016 0 -3.88251e-019 -4.81903 -41.2053 -19.6031 -0.725705 54.2192 1.36346 -2.04902 -31.7265 -3.22904 2.03217e-016 0 3.88251e-019 13.9684 -32.4221 2.1624 0.77242 58.3564 -2.08166 9.5697 -41.0713 13.5634 
93.0973 78.7713 90.5464 -6.28426 -2.31636 65.5311 -3.62057 14.7839 -11.7396 4.68663 -8.43519 -3.08546 -4.68428 -0.698634 -10.4948 18.8407 20.5523 -21.9393 -0 0 0 -0 0 0 6.10099e-014 -7.29421e-014 -5.54118e-013 60.4796 37.281 -1.89173 -22.9269 -17.2162 46.3705 -0.0141521 -3.38657 -0.476516 5.37486e-010 -4.15968e-009 2.01069e-009 9.23958e-010 -7.17485e-009 3.4694e-009 5.37489e-010 -4.15968e-009 2.01068e-009 7.73091 5.47488 0.417314 5.37486e-010 -4.15969e-009 2.01068e-009 2.90554 0.965183 0.102902 5.3749e-010 -4.15969e-009 2.01069e-009 10.2786 0.731801 0.0259123 5.3748e-010 -4.15969e-009 2.0107e-009 2.22167 -0.733487 -0.20892 6.1023e-014 -7.29408e-014 -5.54342e-013 -48.7697 47.2421 -39.9717 25.2897 -21.7321 -53.9962 0.706107 -23.1548 3.44582 7.75317e-010 2.69563e-009 -4.72874e-010 1.34767e-009 4.61415e-009 -7.93281e-010 7.75312e-010 2.69564e-009 -4.72863e-010 -7.73091 5.47488 -0.417314 7.75323e-010 2.69563e-009 -4.72877e-010 -2.90554 0.965183 -0.102902 7.75309e-010 2.69563e-009 -4.72872e-010 -10.2786 0.731801 -0.0259123 7.75318e-010 2.69563e-009 -4.72875e-010 -2.22167 -0.733487 0.20892 -2.03217e-016 0 -3.88251e-019 -4.82968 -41.1754 -19.9214 -0.733038 54.4435 1.38377 -2.17424 -32.4166 -3.43005 2.03217e-016 0 3.88251e-019 13.6601 -32.7643 0.644873 0.777313 58.3753 -2.06732 9.1477 -41.1823 12.9632 
